<?xml version="1.0" encoding="UTF-8" standalone="no"?>
<!DOCTYPE svg PUBLIC "-//W3C//DTD SVG 1.1//EN"
 "http://www.w3.org/Graphics/SVG/1.1/DTD/svg11.dtd">
<!-- Generated by graphviz version 2.47.3 (20210619.1520)
 -->
<!-- Title: dependencies Pages: 1 -->
<svg width="616pt" height="174pt"
 viewBox="0.00 0.00 616.00 173.80" xmlns="http://www.w3.org/2000/svg" xmlns:xlink="http://www.w3.org/1999/xlink">
<g id="graph0" class="graph" transform="scale(1 1) rotate(0) translate(4 169.8)">
<title>dependencies</title>
<polygon fill="white" stroke="transparent" points="-4,4 -4,-169.8 612,-169.8 612,4 -4,4"/>
<text text-anchor="middle" x="304" y="-8.2" font-family="sans-serif" font-size="14.00">dependencies</text>
<g id="clust1" class="cluster">
<title>cluster_AuthModule</title>
<polygon fill="none" stroke="black" stroke-dasharray="1,5" points="8,-32.8 8,-157.8 600,-157.8 600,-32.8 8,-32.8"/>
</g>
<g id="clust6" class="cluster">
<title>cluster_AuthModule_providers</title>
<polygon fill="none" stroke="black" points="16,-40.8 16,-92.8 592,-92.8 592,-40.8 16,-40.8"/>
</g>
<!-- AuthService -->
<g id="node1" class="node">
<title>AuthService</title>
<ellipse fill="#fdb462" stroke="black" cx="525" cy="-66.8" rx="59.11" ry="18"/>
<text text-anchor="middle" x="525" y="-62.6" font-family="Times,serif" font-size="14.00">AuthService</text>
</g>
<!-- AuthModule -->
<g id="node5" class="node">
<title>AuthModule</title>
<polygon fill="#8dd3c7" stroke="black" points="363.55,-149.8 360.55,-153.8 339.55,-153.8 336.55,-149.8 276.45,-149.8 276.45,-113.8 363.55,-113.8 363.55,-149.8"/>
<text text-anchor="middle" x="320" y="-127.6" font-family="Times,serif" font-size="14.00">AuthModule</text>
</g>
<!-- AuthService&#45;&gt;AuthModule -->
<g id="edge1" class="edge">
<title>AuthService&#45;&gt;AuthModule</title>
<path fill="none" stroke="black" d="M525,-84.91C525,-104.14 525,-131.8 525,-131.8 525,-131.8 373.73,-131.8 373.73,-131.8"/>
<polygon fill="black" stroke="black" points="373.73,-128.3 363.73,-131.8 373.73,-135.3 373.73,-128.3"/>
</g>
<!-- JwtStrategy -->
<g id="node2" class="node">
<title>JwtStrategy</title>
<ellipse fill="#fdb462" stroke="black" cx="391" cy="-66.8" rx="56.76" ry="18"/>
<text text-anchor="middle" x="391" y="-62.6" font-family="Times,serif" font-size="14.00">JwtStrategy</text>
</g>
<!-- JwtStrategy&#45;&gt;AuthModule -->
<g id="edge2" class="edge">
<title>JwtStrategy&#45;&gt;AuthModule</title>
<path fill="none" stroke="black" d="M349.07,-79.03C349.07,-79.03 349.07,-103.48 349.07,-103.48"/>
<polygon fill="black" stroke="black" points="345.57,-103.48 349.07,-113.48 352.57,-103.48 345.57,-103.48"/>
</g>
<!-- PrismaService -->
<g id="node3" class="node">
<title>PrismaService</title>
<ellipse fill="#fdb462" stroke="black" cx="250" cy="-66.8" rx="66.63" ry="18"/>
<text text-anchor="middle" x="250" y="-62.6" font-family="Times,serif" font-size="14.00">PrismaService</text>
</g>
<!-- PrismaService&#45;&gt;AuthModule -->
<g id="edge3" class="edge">
<title>PrismaService&#45;&gt;AuthModule</title>
<path fill="none" stroke="black" d="M296.52,-79.95C296.52,-79.95 296.52,-103.49 296.52,-103.49"/>
<polygon fill="black" stroke="black" points="293.02,-103.49 296.52,-113.49 300.02,-103.49 293.02,-103.49"/>
</g>
<!-- UsuarioService -->
<g id="node4" class="node">
<title>UsuarioService</title>
<ellipse fill="#fdb462" stroke="black" cx="95" cy="-66.8" rx="70.62" ry="18"/>
<text text-anchor="middle" x="95" y="-62.6" font-family="Times,serif" font-size="14.00">UsuarioService</text>
</g>
<!-- UsuarioService&#45;&gt;AuthModule -->
<g id="edge4" class="edge">
<title>UsuarioService&#45;&gt;AuthModule</title>
<path fill="none" stroke="black" d="M95,-84.91C95,-104.14 95,-131.8 95,-131.8 95,-131.8 266.35,-131.8 266.35,-131.8"/>
<polygon fill="black" stroke="black" points="266.35,-135.3 276.35,-131.8 266.35,-128.3 266.35,-135.3"/>
</g>
</g>
</svg>
