<?xml version="1.0" encoding="UTF-8" standalone="no"?>
<!DOCTYPE svg PUBLIC "-//W3C//DTD SVG 1.1//EN"
 "http://www.w3.org/Graphics/SVG/1.1/DTD/svg11.dtd">
<!-- Generated by graphviz version 2.47.3 (20210619.1520)
 -->
<!-- Title: dependencies Pages: 1 -->
<svg width="471pt" height="247pt"
 viewBox="0.00 0.00 471.00 246.80" xmlns="http://www.w3.org/2000/svg" xmlns:xlink="http://www.w3.org/1999/xlink">
<g id="graph0" class="graph" transform="scale(1 1) rotate(0) translate(4 242.8)">
<title>dependencies</title>
<polygon fill="white" stroke="transparent" points="-4,4 -4,-242.8 467,-242.8 467,4 -4,4"/>
<text text-anchor="middle" x="231.5" y="-8.2" font-family="sans-serif" font-size="14.00">dependencies</text>
<g id="clust1" class="cluster">
<title>cluster_UsuarioModule</title>
<polygon fill="none" stroke="black" stroke-dasharray="1,5" points="8,-32.8 8,-230.8 455,-230.8 455,-32.8 8,-32.8"/>
</g>
<g id="clust4" class="cluster">
<title>cluster_UsuarioModule_exports</title>
<polygon fill="none" stroke="black" points="189,-170.8 189,-222.8 311,-222.8 311,-170.8 189,-170.8"/>
</g>
<g id="clust3" class="cluster">
<title>cluster_UsuarioModule_imports</title>
<polygon fill="none" stroke="black" points="333,-40.8 333,-92.8 447,-92.8 447,-40.8 333,-40.8"/>
</g>
<g id="clust6" class="cluster">
<title>cluster_UsuarioModule_providers</title>
<polygon fill="none" stroke="black" points="16,-40.8 16,-92.8 325,-92.8 325,-40.8 16,-40.8"/>
</g>
<!-- PrismaModule -->
<g id="node1" class="node">
<title>PrismaModule</title>
<polygon fill="#8dd3c7" stroke="black" points="439.43,-84.8 436.43,-88.8 415.43,-88.8 412.43,-84.8 340.57,-84.8 340.57,-48.8 439.43,-48.8 439.43,-84.8"/>
<text text-anchor="middle" x="390" y="-62.6" font-family="Times,serif" font-size="14.00">PrismaModule</text>
</g>
<!-- UsuarioModule -->
<g id="node2" class="node">
<title>UsuarioModule</title>
<polygon fill="#8dd3c7" stroke="black" points="301.87,-149.8 298.87,-153.8 277.87,-153.8 274.87,-149.8 198.13,-149.8 198.13,-113.8 301.87,-113.8 301.87,-149.8"/>
<text text-anchor="middle" x="250" y="-127.6" font-family="Times,serif" font-size="14.00">UsuarioModule</text>
</g>
<!-- PrismaModule&#45;&gt;UsuarioModule -->
<g id="edge1" class="edge">
<title>PrismaModule&#45;&gt;UsuarioModule</title>
<path fill="none" stroke="black" d="M390,-84.91C390,-104.14 390,-131.8 390,-131.8 390,-131.8 312.13,-131.8 312.13,-131.8"/>
<polygon fill="black" stroke="black" points="312.13,-128.3 302.13,-131.8 312.13,-135.3 312.13,-128.3"/>
</g>
<!-- UsuarioService  -->
<g id="node3" class="node">
<title>UsuarioService </title>
<polygon fill="#fb8072" stroke="black" points="302.79,-214.8 197.21,-214.8 197.21,-178.8 302.79,-178.8 302.79,-214.8"/>
<text text-anchor="middle" x="250" y="-192.6" font-family="Times,serif" font-size="14.00">UsuarioService </text>
</g>
<!-- UsuarioModule&#45;&gt;UsuarioService  -->
<g id="edge2" class="edge">
<title>UsuarioModule&#45;&gt;UsuarioService </title>
<path fill="none" stroke="black" stroke-dasharray="5,2" d="M250,-149.91C250,-149.91 250,-168.79 250,-168.79"/>
<polygon fill="black" stroke="black" points="246.5,-168.79 250,-178.79 253.5,-168.79 246.5,-168.79"/>
</g>
<!-- PrismaService -->
<g id="node4" class="node">
<title>PrismaService</title>
<ellipse fill="#fdb462" stroke="black" cx="250" cy="-66.8" rx="66.63" ry="18"/>
<text text-anchor="middle" x="250" y="-62.6" font-family="Times,serif" font-size="14.00">PrismaService</text>
</g>
<!-- PrismaService&#45;&gt;UsuarioModule -->
<g id="edge3" class="edge">
<title>PrismaService&#45;&gt;UsuarioModule</title>
<path fill="none" stroke="black" d="M250,-84.91C250,-84.91 250,-103.79 250,-103.79"/>
<polygon fill="black" stroke="black" points="246.5,-103.79 250,-113.79 253.5,-103.79 246.5,-103.79"/>
</g>
<!-- UsuarioService -->
<g id="node5" class="node">
<title>UsuarioService</title>
<ellipse fill="#fdb462" stroke="black" cx="95" cy="-66.8" rx="70.62" ry="18"/>
<text text-anchor="middle" x="95" y="-62.6" font-family="Times,serif" font-size="14.00">UsuarioService</text>
</g>
<!-- UsuarioService&#45;&gt;UsuarioModule -->
<g id="edge4" class="edge">
<title>UsuarioService&#45;&gt;UsuarioModule</title>
<path fill="none" stroke="black" d="M95,-84.91C95,-104.14 95,-131.8 95,-131.8 95,-131.8 187.96,-131.8 187.96,-131.8"/>
<polygon fill="black" stroke="black" points="187.96,-135.3 197.96,-131.8 187.96,-128.3 187.96,-135.3"/>
</g>
</g>
</svg>
