<?xml version="1.0" encoding="UTF-8" standalone="no"?>
<!DOCTYPE svg PUBLIC "-//W3C//DTD SVG 1.1//EN"
 "http://www.w3.org/Graphics/SVG/1.1/DTD/svg11.dtd">
<!-- Generated by graphviz version 2.47.3 (20210619.1520)
 -->
<!-- Title: dependencies Pages: 1 -->
<svg width="664pt" height="174pt"
 viewBox="0.00 0.00 664.00 173.80" xmlns="http://www.w3.org/2000/svg" xmlns:xlink="http://www.w3.org/1999/xlink">
<g id="graph0" class="graph" transform="scale(1 1) rotate(0) translate(4 169.8)">
<title>dependencies</title>
<polygon fill="white" stroke="transparent" points="-4,4 -4,-169.8 660,-169.8 660,4 -4,4"/>
<text text-anchor="middle" x="328" y="-8.2" font-family="sans-serif" font-size="14.00">dependencies</text>
<g id="clust1" class="cluster">
<title>cluster_AppModule</title>
<polygon fill="none" stroke="black" stroke-dasharray="1,5" points="8,-32.8 8,-157.8 648,-157.8 648,-32.8 8,-32.8"/>
</g>
<g id="clust6" class="cluster">
<title>cluster_AppModule_providers</title>
<polygon fill="none" stroke="black" points="510,-40.8 510,-92.8 640,-92.8 640,-40.8 510,-40.8"/>
</g>
<g id="clust3" class="cluster">
<title>cluster_AppModule_imports</title>
<polygon fill="none" stroke="black" points="16,-40.8 16,-92.8 502,-92.8 502,-40.8 16,-40.8"/>
</g>
<!-- AuthModule -->
<g id="node1" class="node">
<title>AuthModule</title>
<polygon fill="#8dd3c7" stroke="black" points="493.55,-84.8 490.55,-88.8 469.55,-88.8 466.55,-84.8 406.45,-84.8 406.45,-48.8 493.55,-48.8 493.55,-84.8"/>
<text text-anchor="middle" x="450" y="-62.6" font-family="Times,serif" font-size="14.00">AuthModule</text>
</g>
<!-- AppModule -->
<g id="node5" class="node">
<title>AppModule</title>
<polygon fill="#8dd3c7" stroke="black" points="368.66,-149.8 365.66,-153.8 344.66,-153.8 341.66,-149.8 285.34,-149.8 285.34,-113.8 368.66,-113.8 368.66,-149.8"/>
<text text-anchor="middle" x="327" y="-127.6" font-family="Times,serif" font-size="14.00">AppModule</text>
</g>
<!-- AuthModule&#45;&gt;AppModule -->
<g id="edge1" class="edge">
<title>AuthModule&#45;&gt;AppModule</title>
<path fill="none" stroke="black" d="M450,-84.82C450,-102.17 450,-125.8 450,-125.8 450,-125.8 378.99,-125.8 378.99,-125.8"/>
<polygon fill="black" stroke="black" points="378.99,-122.3 368.99,-125.8 378.99,-129.3 378.99,-122.3"/>
</g>
<!-- SeguidoresModule -->
<g id="node2" class="node">
<title>SeguidoresModule</title>
<polygon fill="#8dd3c7" stroke="black" points="387.76,-84.8 384.76,-88.8 363.76,-88.8 360.76,-84.8 266.24,-84.8 266.24,-48.8 387.76,-48.8 387.76,-84.8"/>
<text text-anchor="middle" x="327" y="-62.6" font-family="Times,serif" font-size="14.00">SeguidoresModule</text>
</g>
<!-- SeguidoresModule&#45;&gt;AppModule -->
<g id="edge2" class="edge">
<title>SeguidoresModule&#45;&gt;AppModule</title>
<path fill="none" stroke="black" d="M327,-84.91C327,-84.91 327,-103.79 327,-103.79"/>
<polygon fill="black" stroke="black" points="323.5,-103.79 327,-113.79 330.5,-103.79 323.5,-103.79"/>
</g>
<!-- SeguindoModule -->
<g id="node3" class="node">
<title>SeguindoModule</title>
<polygon fill="#8dd3c7" stroke="black" points="248.44,-84.8 245.44,-88.8 224.44,-88.8 221.44,-84.8 135.56,-84.8 135.56,-48.8 248.44,-48.8 248.44,-84.8"/>
<text text-anchor="middle" x="192" y="-62.6" font-family="Times,serif" font-size="14.00">SeguindoModule</text>
</g>
<!-- SeguindoModule&#45;&gt;AppModule -->
<g id="edge3" class="edge">
<title>SeguindoModule&#45;&gt;AppModule</title>
<path fill="none" stroke="black" d="M192,-84.82C192,-102.17 192,-125.8 192,-125.8 192,-125.8 275.03,-125.8 275.03,-125.8"/>
<polygon fill="black" stroke="black" points="275.03,-129.3 285.03,-125.8 275.03,-122.3 275.03,-129.3"/>
</g>
<!-- TweetModule -->
<g id="node4" class="node">
<title>TweetModule</title>
<polygon fill="#8dd3c7" stroke="black" points="118.03,-84.8 115.03,-88.8 94.03,-88.8 91.03,-84.8 23.97,-84.8 23.97,-48.8 118.03,-48.8 118.03,-84.8"/>
<text text-anchor="middle" x="71" y="-62.6" font-family="Times,serif" font-size="14.00">TweetModule</text>
</g>
<!-- TweetModule&#45;&gt;AppModule -->
<g id="edge4" class="edge">
<title>TweetModule&#45;&gt;AppModule</title>
<path fill="none" stroke="black" d="M71,-85.08C71,-106.12 71,-137.8 71,-137.8 71,-137.8 275.3,-137.8 275.3,-137.8"/>
<polygon fill="black" stroke="black" points="275.3,-141.3 285.3,-137.8 275.3,-134.3 275.3,-141.3"/>
</g>
<!-- AppService -->
<g id="node6" class="node">
<title>AppService</title>
<ellipse fill="#fdb462" stroke="black" cx="575" cy="-66.8" rx="56.74" ry="18"/>
<text text-anchor="middle" x="575" y="-62.6" font-family="Times,serif" font-size="14.00">AppService</text>
</g>
<!-- AppService&#45;&gt;AppModule -->
<g id="edge5" class="edge">
<title>AppService&#45;&gt;AppModule</title>
<path fill="none" stroke="black" d="M575,-85.08C575,-106.12 575,-137.8 575,-137.8 575,-137.8 378.79,-137.8 378.79,-137.8"/>
<polygon fill="black" stroke="black" points="378.79,-134.3 368.79,-137.8 378.79,-141.3 378.79,-134.3"/>
</g>
</g>
</svg>
