<?xml version="1.0" encoding="UTF-8" standalone="no"?>
<!DOCTYPE svg PUBLIC "-//W3C//DTD SVG 1.1//EN"
 "http://www.w3.org/Graphics/SVG/1.1/DTD/svg11.dtd">
<!-- Generated by graphviz version 2.47.3 (20210619.1520)
 -->
<!-- Title: dependencies Pages: 1 -->
<svg width="306pt" height="174pt"
 viewBox="0.00 0.00 306.00 173.80" xmlns="http://www.w3.org/2000/svg" xmlns:xlink="http://www.w3.org/1999/xlink">
<g id="graph0" class="graph" transform="scale(1 1) rotate(0) translate(4 169.8)">
<title>dependencies</title>
<polygon fill="white" stroke="transparent" points="-4,4 -4,-169.8 302,-169.8 302,4 -4,4"/>
<text text-anchor="middle" x="149" y="-8.2" font-family="sans-serif" font-size="14.00">dependencies</text>
<g id="clust1" class="cluster">
<title>cluster_TweetModule</title>
<polygon fill="none" stroke="black" stroke-dasharray="1,5" points="8,-32.8 8,-157.8 290,-157.8 290,-32.8 8,-32.8"/>
</g>
<g id="clust6" class="cluster">
<title>cluster_TweetModule_providers</title>
<polygon fill="none" stroke="black" points="138,-40.8 138,-92.8 282,-92.8 282,-40.8 138,-40.8"/>
</g>
<g id="clust3" class="cluster">
<title>cluster_TweetModule_imports</title>
<polygon fill="none" stroke="black" points="16,-40.8 16,-92.8 130,-92.8 130,-40.8 16,-40.8"/>
</g>
<!-- PrismaModule -->
<g id="node1" class="node">
<title>PrismaModule</title>
<polygon fill="#8dd3c7" stroke="black" points="122.43,-84.8 119.43,-88.8 98.43,-88.8 95.43,-84.8 23.57,-84.8 23.57,-48.8 122.43,-48.8 122.43,-84.8"/>
<text text-anchor="middle" x="73" y="-62.6" font-family="Times,serif" font-size="14.00">PrismaModule</text>
</g>
<!-- TweetModule -->
<g id="node2" class="node">
<title>TweetModule</title>
<polygon fill="#8dd3c7" stroke="black" points="188.03,-149.8 185.03,-153.8 164.03,-153.8 161.03,-149.8 93.97,-149.8 93.97,-113.8 188.03,-113.8 188.03,-149.8"/>
<text text-anchor="middle" x="141" y="-127.6" font-family="Times,serif" font-size="14.00">TweetModule</text>
</g>
<!-- PrismaModule&#45;&gt;TweetModule -->
<g id="edge1" class="edge">
<title>PrismaModule&#45;&gt;TweetModule</title>
<path fill="none" stroke="black" d="M107.98,-84.91C107.98,-84.91 107.98,-103.79 107.98,-103.79"/>
<polygon fill="black" stroke="black" points="104.48,-103.79 107.98,-113.79 111.48,-103.79 104.48,-103.79"/>
</g>
<!-- TweetService -->
<g id="node3" class="node">
<title>TweetService</title>
<ellipse fill="#fdb462" stroke="black" cx="210" cy="-66.8" rx="64.24" ry="18"/>
<text text-anchor="middle" x="210" y="-62.6" font-family="Times,serif" font-size="14.00">TweetService</text>
</g>
<!-- TweetService&#45;&gt;TweetModule -->
<g id="edge2" class="edge">
<title>TweetService&#45;&gt;TweetModule</title>
<path fill="none" stroke="black" d="M167.07,-80.27C167.07,-80.27 167.07,-103.66 167.07,-103.66"/>
<polygon fill="black" stroke="black" points="163.57,-103.66 167.07,-113.66 170.57,-103.66 163.57,-103.66"/>
</g>
</g>
</svg>
