<?xml version="1.0" encoding="UTF-8" standalone="no"?>
<!DOCTYPE svg PUBLIC "-//W3C//DTD SVG 1.1//EN"
 "http://www.w3.org/Graphics/SVG/1.1/DTD/svg11.dtd">
<!-- Generated by graphviz version 2.47.3 (20210619.1520)
 -->
<!-- Title: dependencies Pages: 1 -->
<svg width="772pt" height="250pt"
 viewBox="0.00 0.00 772.00 249.80" xmlns="http://www.w3.org/2000/svg" xmlns:xlink="http://www.w3.org/1999/xlink">
<g id="graph0" class="graph" transform="scale(1 1) rotate(0) translate(4 245.8)">
<title>dependencies</title>
<polygon fill="white" stroke="transparent" points="-4,4 -4,-245.8 768,-245.8 768,4 -4,4"/>
<text text-anchor="middle" x="382" y="-8.2" font-family="sans-serif" font-size="14.00">dependencies</text>
<g id="clust1" class="cluster">
<title>cluster_AppModule</title>
<polygon fill="none" stroke="black" stroke-dasharray="1,5" points="8,-108.8 8,-233.8 648,-233.8 648,-108.8 8,-108.8"/>
</g>
<g id="clust3" class="cluster">
<title>cluster_AppModule_imports</title>
<polygon fill="none" stroke="black" points="154,-116.8 154,-168.8 640,-168.8 640,-116.8 154,-116.8"/>
</g>
<g id="clust6" class="cluster">
<title>cluster_AppModule_providers</title>
<polygon fill="none" stroke="black" points="16,-116.8 16,-168.8 146,-168.8 146,-116.8 16,-116.8"/>
</g>
<g id="clust7" class="cluster">
<title>cluster_AuthModule</title>
<polygon fill="none" stroke="black" stroke-dasharray="1,5" points="40,-32.8 40,-100.8 190,-100.8 190,-32.8 40,-32.8"/>
</g>
<g id="clust12" class="cluster">
<title>cluster_AuthModule_providers</title>
<polygon fill="none" stroke="black" points="48,-40.8 48,-92.8 182,-92.8 182,-40.8 48,-40.8"/>
</g>
<g id="clust13" class="cluster">
<title>cluster_SeguidoresModule</title>
<polygon fill="none" stroke="black" stroke-dasharray="1,5" points="198,-32.8 198,-100.8 396,-100.8 396,-32.8 198,-32.8"/>
</g>
<g id="clust18" class="cluster">
<title>cluster_SeguidoresModule_providers</title>
<polygon fill="none" stroke="black" points="206,-40.8 206,-92.8 388,-92.8 388,-40.8 206,-40.8"/>
</g>
<g id="clust19" class="cluster">
<title>cluster_SeguindoModule</title>
<polygon fill="none" stroke="black" stroke-dasharray="1,5" points="404,-32.8 404,-100.8 588,-100.8 588,-32.8 404,-32.8"/>
</g>
<g id="clust24" class="cluster">
<title>cluster_SeguindoModule_providers</title>
<polygon fill="none" stroke="black" points="412,-40.8 412,-92.8 580,-92.8 580,-40.8 412,-40.8"/>
</g>
<g id="clust25" class="cluster">
<title>cluster_TweetModule</title>
<polygon fill="none" stroke="black" stroke-dasharray="1,5" points="596,-32.8 596,-100.8 756,-100.8 756,-32.8 596,-32.8"/>
</g>
<g id="clust30" class="cluster">
<title>cluster_TweetModule_providers</title>
<polygon fill="none" stroke="black" points="604,-40.8 604,-92.8 748,-92.8 748,-40.8 604,-40.8"/>
</g>
<!-- AuthModule -->
<g id="node1" class="node">
<title>AuthModule</title>
<polygon fill="#8dd3c7" stroke="black" points="249.55,-160.8 246.55,-164.8 225.55,-164.8 222.55,-160.8 162.45,-160.8 162.45,-124.8 249.55,-124.8 249.55,-160.8"/>
<text text-anchor="middle" x="206" y="-138.6" font-family="Times,serif" font-size="14.00">AuthModule</text>
</g>
<!-- AppModule -->
<g id="node5" class="node">
<title>AppModule</title>
<polygon fill="#8dd3c7" stroke="black" points="370.66,-225.8 367.66,-229.8 346.66,-229.8 343.66,-225.8 287.34,-225.8 287.34,-189.8 370.66,-189.8 370.66,-225.8"/>
<text text-anchor="middle" x="329" y="-203.6" font-family="Times,serif" font-size="14.00">AppModule</text>
</g>
<!-- AuthModule&#45;&gt;AppModule -->
<g id="edge1" class="edge">
<title>AuthModule&#45;&gt;AppModule</title>
<path fill="none" stroke="black" d="M206,-160.82C206,-178.17 206,-201.8 206,-201.8 206,-201.8 277.01,-201.8 277.01,-201.8"/>
<polygon fill="black" stroke="black" points="277.01,-205.3 287.01,-201.8 277.01,-198.3 277.01,-205.3"/>
</g>
<!-- SeguidoresModule -->
<g id="node2" class="node">
<title>SeguidoresModule</title>
<polygon fill="#8dd3c7" stroke="black" points="389.76,-160.8 386.76,-164.8 365.76,-164.8 362.76,-160.8 268.24,-160.8 268.24,-124.8 389.76,-124.8 389.76,-160.8"/>
<text text-anchor="middle" x="329" y="-138.6" font-family="Times,serif" font-size="14.00">SeguidoresModule</text>
</g>
<!-- SeguidoresModule&#45;&gt;AppModule -->
<g id="edge2" class="edge">
<title>SeguidoresModule&#45;&gt;AppModule</title>
<path fill="none" stroke="black" d="M329,-160.91C329,-160.91 329,-179.79 329,-179.79"/>
<polygon fill="black" stroke="black" points="325.5,-179.79 329,-189.79 332.5,-179.79 325.5,-179.79"/>
</g>
<!-- SeguindoModule -->
<g id="node3" class="node">
<title>SeguindoModule</title>
<polygon fill="#8dd3c7" stroke="black" points="520.44,-160.8 517.44,-164.8 496.44,-164.8 493.44,-160.8 407.56,-160.8 407.56,-124.8 520.44,-124.8 520.44,-160.8"/>
<text text-anchor="middle" x="464" y="-138.6" font-family="Times,serif" font-size="14.00">SeguindoModule</text>
</g>
<!-- SeguindoModule&#45;&gt;AppModule -->
<g id="edge3" class="edge">
<title>SeguindoModule&#45;&gt;AppModule</title>
<path fill="none" stroke="black" d="M464,-160.82C464,-178.17 464,-201.8 464,-201.8 464,-201.8 380.97,-201.8 380.97,-201.8"/>
<polygon fill="black" stroke="black" points="380.97,-198.3 370.97,-201.8 380.97,-205.3 380.97,-198.3"/>
</g>
<!-- TweetModule -->
<g id="node4" class="node">
<title>TweetModule</title>
<polygon fill="#8dd3c7" stroke="black" points="632.03,-160.8 629.03,-164.8 608.03,-164.8 605.03,-160.8 537.97,-160.8 537.97,-124.8 632.03,-124.8 632.03,-160.8"/>
<text text-anchor="middle" x="585" y="-138.6" font-family="Times,serif" font-size="14.00">TweetModule</text>
</g>
<!-- TweetModule&#45;&gt;AppModule -->
<g id="edge4" class="edge">
<title>TweetModule&#45;&gt;AppModule</title>
<path fill="none" stroke="black" d="M585,-161.08C585,-182.12 585,-213.8 585,-213.8 585,-213.8 380.7,-213.8 380.7,-213.8"/>
<polygon fill="black" stroke="black" points="380.7,-210.3 370.7,-213.8 380.7,-217.3 380.7,-210.3"/>
</g>
<!-- AppService -->
<g id="node6" class="node">
<title>AppService</title>
<ellipse fill="#fdb462" stroke="black" cx="81" cy="-142.8" rx="56.74" ry="18"/>
<text text-anchor="middle" x="81" y="-138.6" font-family="Times,serif" font-size="14.00">AppService</text>
</g>
<!-- AppService&#45;&gt;AppModule -->
<g id="edge5" class="edge">
<title>AppService&#45;&gt;AppModule</title>
<path fill="none" stroke="black" d="M81,-161.08C81,-182.12 81,-213.8 81,-213.8 81,-213.8 277.21,-213.8 277.21,-213.8"/>
<polygon fill="black" stroke="black" points="277.21,-217.3 287.21,-213.8 277.21,-210.3 277.21,-217.3"/>
</g>
<!-- AuthService -->
<g id="node7" class="node">
<title>AuthService</title>
<ellipse fill="#fdb462" stroke="black" cx="115" cy="-66.8" rx="59.11" ry="18"/>
<text text-anchor="middle" x="115" y="-62.6" font-family="Times,serif" font-size="14.00">AuthService</text>
</g>
<!-- AuthService&#45;&gt;AuthModule -->
<g id="edge6" class="edge">
<title>AuthService&#45;&gt;AuthModule</title>
<path fill="none" stroke="black" d="M168.27,-74.93C168.27,-74.93 168.27,-114.68 168.27,-114.68"/>
<polygon fill="black" stroke="black" points="164.77,-114.68 168.27,-124.68 171.77,-114.68 164.77,-114.68"/>
</g>
<!-- SeguidoresService -->
<g id="node8" class="node">
<title>SeguidoresService</title>
<ellipse fill="#fdb462" stroke="black" cx="297" cy="-66.8" rx="82.8" ry="18"/>
<text text-anchor="middle" x="297" y="-62.6" font-family="Times,serif" font-size="14.00">SeguidoresService</text>
</g>
<!-- SeguidoresService&#45;&gt;SeguidoresModule -->
<g id="edge7" class="edge">
<title>SeguidoresService&#45;&gt;SeguidoresModule</title>
<path fill="none" stroke="black" d="M324.01,-84.05C324.01,-84.05 324.01,-114.56 324.01,-114.56"/>
<polygon fill="black" stroke="black" points="320.51,-114.56 324.01,-124.56 327.51,-114.56 320.51,-114.56"/>
</g>
<!-- SeguindoService -->
<g id="node9" class="node">
<title>SeguindoService</title>
<ellipse fill="#fdb462" stroke="black" cx="496" cy="-66.8" rx="76.45" ry="18"/>
<text text-anchor="middle" x="496" y="-62.6" font-family="Times,serif" font-size="14.00">SeguindoService</text>
</g>
<!-- SeguindoService&#45;&gt;SeguindoModule -->
<g id="edge8" class="edge">
<title>SeguindoService&#45;&gt;SeguindoModule</title>
<path fill="none" stroke="black" d="M469.87,-84.05C469.87,-84.05 469.87,-114.56 469.87,-114.56"/>
<polygon fill="black" stroke="black" points="466.37,-114.56 469.87,-124.56 473.37,-114.56 466.37,-114.56"/>
</g>
<!-- TweetService -->
<g id="node10" class="node">
<title>TweetService</title>
<ellipse fill="#fdb462" stroke="black" cx="676" cy="-66.8" rx="64.24" ry="18"/>
<text text-anchor="middle" x="676" y="-62.6" font-family="Times,serif" font-size="14.00">TweetService</text>
</g>
<!-- TweetService&#45;&gt;TweetModule -->
<g id="edge9" class="edge">
<title>TweetService&#45;&gt;TweetModule</title>
<path fill="none" stroke="black" d="M622.07,-76.74C622.07,-76.74 622.07,-114.71 622.07,-114.71"/>
<polygon fill="black" stroke="black" points="618.57,-114.71 622.07,-124.71 625.57,-114.71 618.57,-114.71"/>
</g>
</g>
</svg>
