<?xml version="1.0" encoding="UTF-8" standalone="no"?>
<!DOCTYPE svg PUBLIC "-//W3C//DTD SVG 1.1//EN"
 "http://www.w3.org/Graphics/SVG/1.1/DTD/svg11.dtd">
<!-- Generated by graphviz version 2.47.3 (20210619.1520)
 -->
<!-- Title: dependencies Pages: 1 -->
<svg width="1424pt" height="345pt"
 viewBox="0.00 0.00 1424.00 344.80" xmlns="http://www.w3.org/2000/svg" xmlns:xlink="http://www.w3.org/1999/xlink">
<g id="graph0" class="graph" transform="scale(1 1) rotate(0) translate(4 340.8)">
<title>dependencies</title>
<polygon fill="white" stroke="transparent" points="-4,4 -4,-340.8 1420,-340.8 1420,4 -4,4"/>
<text text-anchor="middle" x="708" y="-8.2" font-family="sans-serif" font-size="14.00">dependencies</text>
<g id="clust1" class="cluster">
<title>cluster_AppModule</title>
<polygon fill="none" stroke="black" stroke-dasharray="1,5" points="574,-108.8 574,-320.8 1262,-320.8 1262,-108.8 574,-108.8"/>
</g>
<g id="clust3" class="cluster">
<title>cluster_AppModule_imports</title>
<polygon fill="none" stroke="black" points="720,-116.8 720,-244.8 1222,-244.8 1222,-116.8 720,-116.8"/>
</g>
<g id="clust6" class="cluster">
<title>cluster_AppModule_providers</title>
<polygon fill="none" stroke="black" points="582,-192.8 582,-244.8 712,-244.8 712,-192.8 582,-192.8"/>
</g>
<g id="clust7" class="cluster">
<title>cluster_AuthModule</title>
<polygon fill="none" stroke="black" stroke-dasharray="1,5" points="783,-32.8 783,-100.8 1375,-100.8 1375,-32.8 783,-32.8"/>
</g>
<g id="clust12" class="cluster">
<title>cluster_AuthModule_providers</title>
<polygon fill="none" stroke="black" points="791,-40.8 791,-92.8 1367,-92.8 1367,-40.8 791,-40.8"/>
</g>
<g id="clust13" class="cluster">
<title>cluster_PrismaModule</title>
<polygon fill="none" stroke="black" stroke-dasharray="1,5" points="1270,-184.8 1270,-252.8 1402,-252.8 1402,-184.8 1270,-184.8"/>
</g>
<g id="clust16" class="cluster">
<title>cluster_PrismaModule_exports</title>
<polygon fill="none" stroke="black" points="1278,-192.8 1278,-244.8 1394,-244.8 1394,-192.8 1278,-192.8"/>
</g>
<g id="clust19" class="cluster">
<title>cluster_SeguidoresModule</title>
<polygon fill="none" stroke="black" stroke-dasharray="1,5" points="8,-108.8 8,-176.8 206,-176.8 206,-108.8 8,-108.8"/>
</g>
<g id="clust24" class="cluster">
<title>cluster_SeguidoresModule_providers</title>
<polygon fill="none" stroke="black" points="16,-116.8 16,-168.8 198,-168.8 198,-116.8 16,-116.8"/>
</g>
<g id="clust25" class="cluster">
<title>cluster_SeguindoModule</title>
<polygon fill="none" stroke="black" stroke-dasharray="1,5" points="214,-108.8 214,-176.8 398,-176.8 398,-108.8 214,-108.8"/>
</g>
<g id="clust30" class="cluster">
<title>cluster_SeguindoModule_providers</title>
<polygon fill="none" stroke="black" points="222,-116.8 222,-168.8 390,-168.8 390,-116.8 222,-116.8"/>
</g>
<g id="clust31" class="cluster">
<title>cluster_TweetModule</title>
<polygon fill="none" stroke="black" stroke-dasharray="1,5" points="406,-108.8 406,-176.8 566,-176.8 566,-108.8 406,-108.8"/>
</g>
<g id="clust36" class="cluster">
<title>cluster_TweetModule_providers</title>
<polygon fill="none" stroke="black" points="414,-116.8 414,-168.8 558,-168.8 558,-116.8 414,-116.8"/>
</g>
<g id="clust37" class="cluster">
<title>cluster_UsuarioModule</title>
<polygon fill="none" stroke="black" stroke-dasharray="1,5" points="1270,-260.8 1270,-328.8 1408,-328.8 1408,-260.8 1270,-260.8"/>
</g>
<g id="clust40" class="cluster">
<title>cluster_UsuarioModule_exports</title>
<polygon fill="none" stroke="black" points="1278,-268.8 1278,-320.8 1400,-320.8 1400,-268.8 1278,-268.8"/>
</g>
<!-- AuthModule -->
<g id="node1" class="node">
<title>AuthModule</title>
<polygon fill="#8dd3c7" stroke="black" points="1209.55,-160.8 1206.55,-164.8 1185.55,-164.8 1182.55,-160.8 1122.45,-160.8 1122.45,-124.8 1209.55,-124.8 1209.55,-160.8"/>
<text text-anchor="middle" x="1166" y="-138.6" font-family="Times,serif" font-size="14.00">AuthModule</text>
</g>
<!-- AppModule -->
<g id="node7" class="node">
<title>AppModule</title>
<polygon fill="#8dd3c7" stroke="black" points="1208.66,-312.8 1205.66,-316.8 1184.66,-316.8 1181.66,-312.8 1125.34,-312.8 1125.34,-276.8 1208.66,-276.8 1208.66,-312.8"/>
<text text-anchor="middle" x="1167" y="-290.6" font-family="Times,serif" font-size="14.00">AppModule</text>
</g>
<!-- AuthModule&#45;&gt;AppModule -->
<g id="edge1" class="edge">
<title>AuthModule&#45;&gt;AppModule</title>
<path fill="none" stroke="black" d="M1209.79,-148.8C1214.96,-148.8 1218.45,-148.8 1218.45,-148.8 1218.45,-148.8 1218.45,-294.8 1218.45,-294.8 1218.45,-294.8 1217.5,-294.8 1217.5,-294.8"/>
<polygon fill="black" stroke="black" points="1219.01,-291.3 1209.01,-294.8 1219.01,-298.3 1219.01,-291.3"/>
</g>
<!-- PrismaModule -->
<g id="node2" class="node">
<title>PrismaModule</title>
<polygon fill="#8dd3c7" stroke="black" points="1098.43,-160.8 1095.43,-164.8 1074.43,-164.8 1071.43,-160.8 999.57,-160.8 999.57,-124.8 1098.43,-124.8 1098.43,-160.8"/>
<text text-anchor="middle" x="1049" y="-138.6" font-family="Times,serif" font-size="14.00">PrismaModule</text>
</g>
<!-- SeguidoresModule -->
<g id="node3" class="node">
<title>SeguidoresModule</title>
<polygon fill="#8dd3c7" stroke="black" points="971.76,-236.8 968.76,-240.8 947.76,-240.8 944.76,-236.8 850.24,-236.8 850.24,-200.8 971.76,-200.8 971.76,-236.8"/>
<text text-anchor="middle" x="911" y="-214.6" font-family="Times,serif" font-size="14.00">SeguidoresModule</text>
</g>
<!-- PrismaModule&#45;&gt;SeguidoresModule -->
<g id="edge15" class="edge">
<title>PrismaModule&#45;&gt;SeguidoresModule</title>
<path fill="none" stroke="black" d="M999.6,-148.8C982.4,-148.8 967.31,-148.8 967.31,-148.8 967.31,-148.8 967.31,-190.77 967.31,-190.77"/>
<polygon fill="black" stroke="black" points="963.81,-190.77 967.31,-200.77 970.81,-190.77 963.81,-190.77"/>
</g>
<!-- SeguindoModule -->
<g id="node4" class="node">
<title>SeguindoModule</title>
<polygon fill="#8dd3c7" stroke="black" points="1102.44,-236.8 1099.44,-240.8 1078.44,-240.8 1075.44,-236.8 989.56,-236.8 989.56,-200.8 1102.44,-200.8 1102.44,-236.8"/>
<text text-anchor="middle" x="1046" y="-214.6" font-family="Times,serif" font-size="14.00">SeguindoModule</text>
</g>
<!-- PrismaModule&#45;&gt;SeguindoModule -->
<g id="edge17" class="edge">
<title>PrismaModule&#45;&gt;SeguindoModule</title>
<path fill="none" stroke="black" d="M1032.59,-160.81C1032.59,-160.81 1032.59,-190.65 1032.59,-190.65"/>
<polygon fill="black" stroke="black" points="1029.09,-190.65 1032.59,-200.65 1036.09,-190.65 1029.09,-190.65"/>
</g>
<!-- TweetModule -->
<g id="node5" class="node">
<title>TweetModule</title>
<polygon fill="#8dd3c7" stroke="black" points="1214.03,-236.8 1211.03,-240.8 1190.03,-240.8 1187.03,-236.8 1119.97,-236.8 1119.97,-200.8 1214.03,-200.8 1214.03,-236.8"/>
<text text-anchor="middle" x="1167" y="-214.6" font-family="Times,serif" font-size="14.00">TweetModule</text>
</g>
<!-- PrismaModule&#45;&gt;TweetModule -->
<g id="edge19" class="edge">
<title>PrismaModule&#45;&gt;TweetModule</title>
<path fill="none" stroke="black" d="M1098.37,-146.8C1102.88,-146.8 1105.8,-146.8 1105.8,-146.8 1105.8,-146.8 1105.8,-218.8 1105.8,-218.8 1105.8,-218.8 1109.68,-218.8 1109.68,-218.8"/>
<polygon fill="black" stroke="black" points="1109.68,-222.3 1119.68,-218.8 1109.68,-215.3 1109.68,-222.3"/>
</g>
<!-- UsuarioModule -->
<g id="node6" class="node">
<title>UsuarioModule</title>
<polygon fill="#8dd3c7" stroke="black" points="831.87,-236.8 828.87,-240.8 807.87,-240.8 804.87,-236.8 728.13,-236.8 728.13,-200.8 831.87,-200.8 831.87,-236.8"/>
<text text-anchor="middle" x="780" y="-214.6" font-family="Times,serif" font-size="14.00">UsuarioModule</text>
</g>
<!-- PrismaModule&#45;&gt;UsuarioModule -->
<g id="edge21" class="edge">
<title>PrismaModule&#45;&gt;UsuarioModule</title>
<path fill="none" stroke="black" d="M999.58,-136.8C933.29,-136.8 823.81,-136.8 823.81,-136.8 823.81,-136.8 823.81,-190.6 823.81,-190.6"/>
<polygon fill="black" stroke="black" points="820.31,-190.6 823.81,-200.6 827.31,-190.6 820.31,-190.6"/>
</g>
<!-- PrismaModule&#45;&gt;AppModule -->
<g id="edge2" class="edge">
<title>PrismaModule&#45;&gt;AppModule</title>
<path fill="none" stroke="black" d="M1098.35,-139.8C1107.66,-139.8 1114.55,-139.8 1114.55,-139.8 1114.55,-139.8 1114.55,-282.8 1114.55,-282.8 1114.55,-282.8 1115.62,-282.8 1115.62,-282.8"/>
<polygon fill="black" stroke="black" points="1115.17,-286.3 1125.17,-282.8 1115.17,-279.3 1115.17,-286.3"/>
</g>
<!-- PrismaModule&#45;&gt;AppModule -->
<g id="edge3" class="edge">
<title>PrismaModule&#45;&gt;AppModule</title>
<path fill="none" stroke="black" d="M1098.53,-153.8C1101.91,-153.8 1104.01,-153.8 1104.01,-153.8 1104.01,-153.8 1104.01,-287.8 1104.01,-287.8 1104.01,-287.8 1115.33,-287.8 1115.33,-287.8"/>
<polygon fill="black" stroke="black" points="1115.33,-291.3 1125.33,-287.8 1115.33,-284.3 1115.33,-291.3"/>
</g>
<!-- PrismaService  -->
<g id="node13" class="node">
<title>PrismaService </title>
<polygon fill="#fb8072" stroke="black" points="1386.36,-236.8 1285.64,-236.8 1285.64,-200.8 1386.36,-200.8 1386.36,-236.8"/>
<text text-anchor="middle" x="1336" y="-214.6" font-family="Times,serif" font-size="14.00">PrismaService </text>
</g>
<!-- PrismaModule&#45;&gt;PrismaService  -->
<g id="edge13" class="edge">
<title>PrismaModule&#45;&gt;PrismaService </title>
<path fill="none" stroke="black" stroke-dasharray="5,2" d="M1065.41,-160.86C1065.41,-165.29 1065.41,-168.8 1065.41,-168.8 1065.41,-168.8 1322.56,-168.8 1322.56,-168.8 1322.56,-168.8 1322.56,-190.75 1322.56,-190.75"/>
<polygon fill="black" stroke="black" points="1319.06,-190.75 1322.56,-200.75 1326.06,-190.75 1319.06,-190.75"/>
</g>
<!-- SeguidoresModule&#45;&gt;AppModule -->
<g id="edge4" class="edge">
<title>SeguidoresModule&#45;&gt;AppModule</title>
<path fill="none" stroke="black" d="M911,-237.12C911,-260.46 911,-297.8 911,-297.8 911,-297.8 1115.3,-297.8 1115.3,-297.8"/>
<polygon fill="black" stroke="black" points="1115.3,-301.3 1125.3,-297.8 1115.3,-294.3 1115.3,-301.3"/>
</g>
<!-- SeguindoModule&#45;&gt;AppModule -->
<g id="edge5" class="edge">
<title>SeguindoModule&#45;&gt;AppModule</title>
<path fill="none" stroke="black" d="M1046,-237.09C1046,-259.01 1046,-292.8 1046,-292.8 1046,-292.8 1115.02,-292.8 1115.02,-292.8"/>
<polygon fill="black" stroke="black" points="1115.02,-296.3 1125.02,-292.8 1115.02,-289.3 1115.02,-296.3"/>
</g>
<!-- TweetModule&#45;&gt;AppModule -->
<g id="edge6" class="edge">
<title>TweetModule&#45;&gt;AppModule</title>
<path fill="none" stroke="black" d="M1167,-236.81C1167,-236.81 1167,-266.65 1167,-266.65"/>
<polygon fill="black" stroke="black" points="1163.5,-266.65 1167,-276.65 1170.5,-266.65 1163.5,-266.65"/>
</g>
<!-- UsuarioModule&#45;&gt;AppModule -->
<g id="edge7" class="edge">
<title>UsuarioModule&#45;&gt;AppModule</title>
<path fill="none" stroke="black" d="M797.31,-237.03C797.31,-261.73 797.31,-302.8 797.31,-302.8 797.31,-302.8 1115.31,-302.8 1115.31,-302.8"/>
<polygon fill="black" stroke="black" points="1115.31,-306.3 1125.31,-302.8 1115.31,-299.3 1115.31,-306.3"/>
</g>
<!-- UsuarioService  -->
<g id="node17" class="node">
<title>UsuarioService </title>
<polygon fill="#fb8072" stroke="black" points="1391.79,-312.8 1286.21,-312.8 1286.21,-276.8 1391.79,-276.8 1391.79,-312.8"/>
<text text-anchor="middle" x="1339" y="-290.6" font-family="Times,serif" font-size="14.00">UsuarioService </text>
</g>
<!-- UsuarioModule&#45;&gt;UsuarioService  -->
<g id="edge22" class="edge">
<title>UsuarioModule&#45;&gt;UsuarioService </title>
<path fill="none" stroke="black" stroke-dasharray="5,2" d="M762.69,-236.91C762.69,-246.7 762.69,-256.8 762.69,-256.8 762.69,-256.8 1336.14,-256.8 1336.14,-256.8 1336.14,-256.8 1336.14,-266.69 1336.14,-266.69"/>
<polygon fill="black" stroke="black" points="1332.64,-266.69 1336.14,-276.69 1339.64,-266.69 1332.64,-266.69"/>
</g>
<!-- AppService -->
<g id="node8" class="node">
<title>AppService</title>
<ellipse fill="#fdb462" stroke="black" cx="647" cy="-218.8" rx="56.74" ry="18"/>
<text text-anchor="middle" x="647" y="-214.6" font-family="Times,serif" font-size="14.00">AppService</text>
</g>
<!-- AppService&#45;&gt;AppModule -->
<g id="edge8" class="edge">
<title>AppService&#45;&gt;AppModule</title>
<path fill="none" stroke="black" d="M647,-236.81C647,-262.82 647,-307.8 647,-307.8 647,-307.8 1115.33,-307.8 1115.33,-307.8"/>
<polygon fill="black" stroke="black" points="1115.33,-311.3 1125.33,-307.8 1115.33,-304.3 1115.33,-311.3"/>
</g>
<!-- AuthService -->
<g id="node9" class="node">
<title>AuthService</title>
<ellipse fill="#fdb462" stroke="black" cx="1300" cy="-66.8" rx="59.11" ry="18"/>
<text text-anchor="middle" x="1300" y="-62.6" font-family="Times,serif" font-size="14.00">AuthService</text>
</g>
<!-- AuthService&#45;&gt;AuthModule -->
<g id="edge9" class="edge">
<title>AuthService&#45;&gt;AuthModule</title>
<path fill="none" stroke="black" d="M1263.26,-80.97C1263.26,-101.42 1263.26,-136.8 1263.26,-136.8 1263.26,-136.8 1219.79,-136.8 1219.79,-136.8"/>
<polygon fill="black" stroke="black" points="1219.79,-133.3 1209.79,-136.8 1219.79,-140.3 1219.79,-133.3"/>
</g>
<!-- JwtStrategy -->
<g id="node10" class="node">
<title>JwtStrategy</title>
<ellipse fill="#fdb462" stroke="black" cx="1166" cy="-66.8" rx="56.76" ry="18"/>
<text text-anchor="middle" x="1166" y="-62.6" font-family="Times,serif" font-size="14.00">JwtStrategy</text>
</g>
<!-- JwtStrategy&#45;&gt;AuthModule -->
<g id="edge10" class="edge">
<title>JwtStrategy&#45;&gt;AuthModule</title>
<path fill="none" stroke="black" d="M1180.59,-84.43C1180.59,-84.43 1180.59,-114.74 1180.59,-114.74"/>
<polygon fill="black" stroke="black" points="1177.09,-114.74 1180.59,-124.74 1184.09,-114.74 1177.09,-114.74"/>
</g>
<!-- PrismaService -->
<g id="node11" class="node">
<title>PrismaService</title>
<ellipse fill="#fdb462" stroke="black" cx="1025" cy="-66.8" rx="66.63" ry="18"/>
<text text-anchor="middle" x="1025" y="-62.6" font-family="Times,serif" font-size="14.00">PrismaService</text>
</g>
<!-- PrismaService&#45;&gt;AuthModule -->
<g id="edge11" class="edge">
<title>PrismaService&#45;&gt;AuthModule</title>
<path fill="none" stroke="black" d="M1092.05,-66.8C1101.23,-66.8 1107.58,-66.8 1107.58,-66.8 1107.58,-66.8 1107.58,-132.8 1107.58,-132.8 1107.58,-132.8 1112.32,-132.8 1112.32,-132.8"/>
<polygon fill="black" stroke="black" points="1112.32,-136.3 1122.32,-132.8 1112.32,-129.3 1112.32,-136.3"/>
</g>
<!-- PrismaService&#45;&gt;PrismaModule -->
<g id="edge14" class="edge">
<title>PrismaService&#45;&gt;PrismaModule</title>
<path fill="none" stroke="black" d="M1045.8,-84.05C1045.8,-84.05 1045.8,-114.56 1045.8,-114.56"/>
<polygon fill="black" stroke="black" points="1042.3,-114.56 1045.8,-124.56 1049.3,-114.56 1042.3,-114.56"/>
</g>
<!-- PrismaService&#45;&gt;UsuarioModule -->
<g id="edge23" class="edge">
<title>PrismaService&#45;&gt;UsuarioModule</title>
<path fill="none" stroke="black" d="M962.75,-73.44C962.75,-85.96 962.75,-111.8 962.75,-111.8 962.75,-111.8 815.69,-111.8 815.69,-111.8 815.69,-111.8 815.69,-190.65 815.69,-190.65"/>
<polygon fill="black" stroke="black" points="812.19,-190.65 815.69,-200.65 819.19,-190.65 812.19,-190.65"/>
</g>
<!-- UsuarioService -->
<g id="node12" class="node">
<title>UsuarioService</title>
<ellipse fill="#fdb462" stroke="black" cx="870" cy="-66.8" rx="70.62" ry="18"/>
<text text-anchor="middle" x="870" y="-62.6" font-family="Times,serif" font-size="14.00">UsuarioService</text>
</g>
<!-- UsuarioService&#45;&gt;AuthModule -->
<g id="edge12" class="edge">
<title>UsuarioService&#45;&gt;AuthModule</title>
<path fill="none" stroke="black" d="M910.41,-81.68C910.41,-90.03 910.41,-98.8 910.41,-98.8 910.41,-98.8 1151.41,-98.8 1151.41,-98.8 1151.41,-98.8 1151.41,-114.65 1151.41,-114.65"/>
<polygon fill="black" stroke="black" points="1147.91,-114.65 1151.41,-124.65 1154.91,-114.65 1147.91,-114.65"/>
</g>
<!-- UsuarioService&#45;&gt;UsuarioModule -->
<g id="edge24" class="edge">
<title>UsuarioService&#45;&gt;UsuarioModule</title>
<path fill="none" stroke="black" d="M807.56,-75.41C807.56,-75.41 807.56,-190.66 807.56,-190.66"/>
<polygon fill="black" stroke="black" points="804.06,-190.66 807.56,-200.66 811.06,-190.66 804.06,-190.66"/>
</g>
<!-- SeguidoresService -->
<g id="node14" class="node">
<title>SeguidoresService</title>
<ellipse fill="#fdb462" stroke="black" cx="107" cy="-142.8" rx="82.8" ry="18"/>
<text text-anchor="middle" x="107" y="-138.6" font-family="Times,serif" font-size="14.00">SeguidoresService</text>
</g>
<!-- SeguidoresService&#45;&gt;SeguidoresModule -->
<g id="edge16" class="edge">
<title>SeguidoresService&#45;&gt;SeguidoresModule</title>
<path fill="none" stroke="black" d="M107,-160.85C107,-175.17 107,-192.8 107,-192.8 107,-192.8 880.27,-192.8 880.27,-192.8 880.27,-192.8 880.27,-193.59 880.27,-193.59"/>
<polygon fill="black" stroke="black" points="876.77,-190.74 880.27,-200.74 883.77,-190.74 876.77,-190.74"/>
</g>
<!-- SeguindoService -->
<g id="node15" class="node">
<title>SeguindoService</title>
<ellipse fill="#fdb462" stroke="black" cx="306" cy="-142.8" rx="76.45" ry="18"/>
<text text-anchor="middle" x="306" y="-138.6" font-family="Times,serif" font-size="14.00">SeguindoService</text>
</g>
<!-- SeguindoService&#45;&gt;SeguindoModule -->
<g id="edge18" class="edge">
<title>SeguindoService&#45;&gt;SeguindoModule</title>
<path fill="none" stroke="black" d="M306,-160.86C306,-172.24 306,-184.8 306,-184.8 306,-184.8 994.78,-184.8 994.78,-184.8 994.78,-184.8 994.78,-190.61 994.78,-190.61"/>
<polygon fill="black" stroke="black" points="991.28,-190.61 994.78,-200.61 998.28,-190.61 991.28,-190.61"/>
</g>
<!-- TweetService -->
<g id="node16" class="node">
<title>TweetService</title>
<ellipse fill="#fdb462" stroke="black" cx="486" cy="-142.8" rx="64.24" ry="18"/>
<text text-anchor="middle" x="486" y="-138.6" font-family="Times,serif" font-size="14.00">TweetService</text>
</g>
<!-- TweetService&#45;&gt;TweetModule -->
<g id="edge20" class="edge">
<title>TweetService&#45;&gt;TweetModule</title>
<path fill="none" stroke="black" d="M486,-160.99C486,-169.08 486,-176.8 486,-176.8 486,-176.8 1166,-176.8 1166,-176.8 1166,-176.8 1166,-190.74 1166,-190.74"/>
<polygon fill="black" stroke="black" points="1162.5,-190.74 1166,-200.74 1169.5,-190.74 1162.5,-190.74"/>
</g>
</g>
</svg>
